<?xml version="1.0" encoding="UTF-8"?>
<!DOCTYPE svg PUBLIC "-//W3C//DTD SVG 1.1//EN" "http://www.w3.org/Graphics/SVG/1.1/DTD/svg11.dtd">
<!-- Creator: CorelDRAW 2019 (64-Bit) -->
<svg xmlns="http://www.w3.org/2000/svg" xml:space="preserve" width="156px" height="68px" version="1.1" shape-rendering="geometricPrecision" text-rendering="geometricPrecision" image-rendering="optimizeQuality" fill-rule="evenodd" clip-rule="evenodd"
viewBox="0 0 156 68"
 xmlns:xlink="http://www.w3.org/1999/xlink">
 <g id="Layer_x0020_1">
  <metadata id="CorelCorpID_0Corel-Layer"/>
  <g id="_2748234089440">
   <path fill="#93C02C" d="M17.578 36.661c-0.205,4.67 -4.06,8.393 -8.785,8.393l-8.793 0 0 -13.225c0,-2.416 1.979,-4.393 4.397,-4.393l0 13.225 4.396 0c2.429,0 4.397,-1.967 4.397,-4.393l0 -8.785c0,-2.427 -1.968,-4.393 -4.397,-4.393l-4.396 0c-2.419,0 -4.397,-1.977 -4.397,-4.393l8.23 0c0.366,0 0.731,-0.006 1.097,0.016 4.608,0.275 8.26,4.096 8.26,8.77l0 8.506c0,0.225 0.001,0.446 -0.009,0.672z"/>
   <path fill="#EF7F1A" stroke="#EF7F1A" stroke-width="0.216" stroke-miterlimit="2.61313" d="M84.172 10.989c-1.681,-7.343 -9.317,-5.081 -14.514,-10.642 -0.421,-0.45 -0.36,-0.522 -0.349,0.146 0.065,3.735 0.873,11.17 6.323,14.412 1.094,0.651 3.524,1.547 4.831,1.477 0.728,-0.039 0.955,-0.51 0.365,-2.012 -1.493,-3.801 -4.589,-5.892 -7.804,-8.122 5.53,1.027 9.471,4.318 9.416,8.882 -0.017,1.447 1.272,1.217 1.653,0.269 0.425,-1.061 0.392,-3.04 0.079,-4.41z"/>
   <path fill="#93C02C" d="M66.643 45.034c1.981,0 3.81,-0.655 5.28,-1.76 0.804,1.067 2.082,1.76 3.514,1.76l0 -17.571c-2.418,0 -4.397,1.977 -4.397,4.393l0 4.407c-0.018,2.437 -1.978,4.378 -4.397,4.378 -2.422,0 -4.387,-1.957 -4.396,-4.375l0 -4.41c0,-2.416 -1.979,-4.393 -4.397,-4.393l0 8.805c0.011,4.843 3.943,8.766 8.793,8.766z"/>
   <path fill="#93C02C" d="M49.06 27.463c-1.979,0 -3.805,0.653 -5.275,1.756 -0.804,-1.071 -2.084,-1.767 -3.518,-1.767l0 17.612 4.397 0 0 -8.806c0,-2.439 1.967,-4.402 4.396,-4.402l1.847 0c2.418,0 4.397,-1.977 4.397,-4.393l-6.244 0z"/>
   <path fill="#93C02C" d="M28.927 45.054c4.857,0 8.793,-3.933 8.793,-8.786l-0.018 -8.805c-2.419,0 -4.397,1.977 -4.397,4.393l-0.009 4.911c-0.248,2.191 -2.109,3.894 -4.369,3.894 -2.428,0 -4.397,-1.967 -4.397,-4.393 0,-2.426 1.969,-4.392 4.397,-4.392l4.373 0c0,-2.128 -1.535,-3.916 -3.553,-4.311 -0.68,-0.134 -1.438,-0.087 -2.114,0.012 -4.243,0.625 -7.5,4.278 -7.5,8.691 0,4.853 3.937,8.786 8.794,8.786z"/>
   <path fill="#4D4D4D" d="M106.909 45.054c4.857,0 8.794,-3.933 8.794,-8.786l-0.019 -8.805c-2.418,0 -4.396,1.977 -4.396,4.393 0,1.212 0.109,4.699 -0.145,5.604 -0.52,1.847 -2.218,3.201 -4.234,3.201 -2.428,0 -4.396,-1.967 -4.396,-4.393 0,-2.426 1.968,-4.393 4.396,-4.393l4.374 0c0,-1.953 -1.294,-3.619 -3.068,-4.186 -1.036,-0.33 -2.239,-0.222 -3.274,0.015 -3.909,0.893 -6.825,4.388 -6.825,8.564 0,4.853 3.937,8.786 8.793,8.786zm40.293 -11.012l-3.828 0c0.76,-1.313 2.181,-2.197 3.809,-2.197l3.828 0c-0.76,1.313 -2.181,2.197 -3.809,2.197zm-8.729 3.416c0.594,4.275 4.267,7.566 8.71,7.566l8.813 0c0,-2.416 -1.979,-4.393 -4.397,-4.393l-4.416 0c-1.628,0 -3.049,-0.883 -3.809,-2.196l3.828 0c5.778,0 9.941,-5.456 8.517,-10.983l-8.536 0c-5.366,0 -9.442,4.734 -8.71,10.006zm-59.171 7.576l4.397 0 0 -5.783 1.239 -1.24c1.881,1.932 3.824,3.836 5.733,5.743 1.71,1.708 4.508,1.708 6.218,0l-8.845 -8.853 4.953 -4.955c1.872,-1.871 1.891,-4.6 0.14,-6.349 -3.149,3.146 -6.288,6.293 -9.438,9.442l0 -14.35c-2.418,0 -4.397,1.976 -4.397,4.392l0 21.953zm51.925 -7.432c-0.571,1.763 -2.228,3.039 -4.184,3.039 -2.428,0 -4.397,-1.966 -4.397,-4.393 0,-2.426 1.969,-4.392 4.397,-4.392 3.028,0 5.083,2.968 4.184,5.746zm-4.184 7.432c4.857,0 8.794,-3.934 8.794,-8.786l-0.019 -17.551c-2.418,0 -4.397,1.977 -4.397,4.393l0 5.537c-5.782,-3.323 -13.171,0.813 -13.171,7.621 0,4.852 3.937,8.786 8.793,8.786z"/>
   <path fill="#4D4D4D" d="M8.042 59.358c0,-0.107 0.021,-0.21 0.062,-0.308 0.043,-0.096 0.1,-0.182 0.173,-0.255 0.073,-0.073 0.158,-0.132 0.256,-0.175 0.096,-0.044 0.201,-0.066 0.313,-0.066 0.107,0 0.21,0.022 0.306,0.066 0.098,0.043 0.183,0.102 0.256,0.175 0.073,0.073 0.13,0.159 0.173,0.255 0.041,0.098 0.062,0.201 0.062,0.308 0,0.113 -0.021,0.216 -0.062,0.312 -0.043,0.097 -0.1,0.181 -0.173,0.253 -0.073,0.074 -0.158,0.131 -0.256,0.174 -0.096,0.04 -0.199,0.062 -0.306,0.062 -0.112,0 -0.217,-0.022 -0.313,-0.062 -0.098,-0.043 -0.183,-0.1 -0.256,-0.174 -0.073,-0.072 -0.13,-0.156 -0.173,-0.253 -0.041,-0.096 -0.062,-0.199 -0.062,-0.312zm145.69 7.565c0,-0.109 0.022,-0.212 0.062,-0.31 0.043,-0.096 0.1,-0.182 0.173,-0.255 0.073,-0.073 0.158,-0.132 0.256,-0.175 0.096,-0.045 0.201,-0.066 0.313,-0.066 0.107,0 0.21,0.021 0.306,0.066 0.098,0.043 0.183,0.102 0.256,0.175 0.073,0.073 0.13,0.159 0.173,0.255 0.041,0.098 0.062,0.201 0.062,0.31 0,0.11 -0.021,0.214 -0.062,0.31 -0.043,0.097 -0.1,0.18 -0.173,0.253 -0.073,0.074 -0.158,0.13 -0.256,0.173 -0.096,0.041 -0.199,0.063 -0.306,0.063 -0.112,0 -0.217,-0.022 -0.313,-0.063 -0.098,-0.043 -0.183,-0.099 -0.256,-0.173 -0.073,-0.073 -0.13,-0.156 -0.173,-0.253 -0.04,-0.096 -0.062,-0.2 -0.062,-0.31zm2.209 -3.889c0,0.523 -0.172,0.979 -0.517,1.366 -0.345,0.389 -0.753,0.583 -1.221,0.583l-1.526 0 -0.048 0 -0.359 0 0 -0.01c-0.82,-0.046 -1.395,-0.235 -1.726,-0.569 -0.272,-0.3 -0.407,-0.718 -0.407,-1.259l0 -5.65 1.195 0 0 5.142c0,0.537 0.072,0.863 0.214,0.981 0.14,0.117 0.508,0.176 1.103,0.178l0.028 0 1.151 0c0.393,0 0.66,-0.102 0.802,-0.303 0.056,-0.097 0.084,-0.307 0.084,-0.631l0 -1.634 1.227 0 0 1.806zm-9.345 -3.676c0,-0.107 0.021,-0.21 0.062,-0.308 0.043,-0.096 0.1,-0.182 0.173,-0.255 0.073,-0.073 0.158,-0.132 0.256,-0.175 0.096,-0.044 0.201,-0.066 0.313,-0.066 0.107,0 0.21,0.022 0.306,0.066 0.098,0.043 0.183,0.102 0.256,0.175 0.073,0.073 0.13,0.159 0.173,0.255 0.041,0.098 0.062,0.201 0.062,0.308 0,0.113 -0.021,0.216 -0.062,0.312 -0.043,0.097 -0.1,0.181 -0.173,0.253 -0.073,0.074 -0.158,0.131 -0.256,0.174 -0.096,0.04 -0.199,0.062 -0.306,0.062 -0.112,0 -0.217,-0.022 -0.313,-0.062 -0.098,-0.043 -0.183,-0.1 -0.256,-0.174 -0.073,-0.072 -0.13,-0.156 -0.173,-0.253 -0.041,-0.096 -0.062,-0.199 -0.062,-0.312zm2.06 3.676c0,0.523 -0.173,0.979 -0.518,1.366 -0.345,0.389 -0.752,0.583 -1.22,0.583l-1.398 0 -0.536 0 0 -0.038c-0.621,-0.094 -1.098,-0.363 -1.43,-0.809 -0.215,0.566 -0.727,0.847 -1.537,0.847l-6.254 0c-0.475,0 -0.875,-0.19 -1.199,-0.572 -0.324,-0.382 -0.486,-0.841 -0.486,-1.378l0 -1.806 1.196 0 0 1.635c0,0.329 0.036,0.54 0.105,0.631 0.128,0.201 0.388,0.303 0.781,0.303l5.795 0c0.397,0 0.594,-0.146 0.594,-0.439 0,-0.149 -0.092,-0.331 -0.276,-0.547l-2.913 -3.259 -0.208 -1.168 4.585 -1.776 0.182 1.086 -3.46 1.291 3.246 3.69 0.861 0.867c0.245,0.167 0.558,0.252 0.936,0.255l0.018 0 1.022 0c0.394,0 0.66,-0.102 0.803,-0.303 0.055,-0.097 0.083,-0.307 0.083,-0.631l0 -1.634 1.228 0 0 1.806zm-17.678 0c0,0.523 -0.172,0.979 -0.518,1.366 -0.345,0.389 -0.752,0.583 -1.22,0.583l-1.517 0 -0.03 0 -0.386 0 0 -0.012c-0.427,-0.027 -0.756,-0.098 -0.986,-0.213 -0.197,-0.101 -0.361,-0.29 -0.489,-0.568l-0.14 -0.617c-0.484,0.307 -0.952,0.569 -1.407,0.788 -0.4,0.178 -0.726,0.314 -0.98,0.408 -0.485,0.128 -1.301,0.198 -2.448,0.212l0 0.002 -0.359 0 -0.064 0 -5.596 0c-0.817,0 -1.379,-0.317 -1.685,-0.952 -0.471,0.635 -1.012,0.952 -1.622,0.952l-1.018 0 -0.411 0 -5.608 0c-0.816,0 -1.378,-0.317 -1.684,-0.952 -0.472,0.635 -1.012,0.952 -1.623,0.952l-0.974 0 -0.454 0 -0.646 0 0.057 0.58c0,0.675 -0.268,1.249 -0.807,1.724 -0.537,0.476 -1.137,0.713 -1.797,0.713l-1.85 0c-0.901,0 -1.64,-0.346 -2.213,-1.04 -0.485,-0.647 -0.729,-1.449 -0.729,-2.408l0 -2.126 1.206 0 0 2.611c0,0.413 0.146,0.802 0.438,1.164 0.375,0.415 0.898,0.622 1.569,0.622l1.528 0c0.396,0 0.731,-0.107 1.001,-0.319 0.306,-0.237 0.459,-0.572 0.459,-1.009 0,-0.219 -0.187,-0.358 -0.56,-0.421 -0.374,-0.06 -1.002,-0.091 -1.884,-0.091l-0.105 -1.187 4.333 0 0.454 0 0.87 0c0.553,0 0.828,-0.299 0.828,-0.899l0 -1.67 1.175 0 0 1.551c0,0.679 0.387,1.018 1.161,1.018 0.436,-1.15 0.938,-2.034 1.507,-2.653 0.57,-0.62 1.168,-0.93 1.792,-0.93 0.294,0 0.602,0.096 0.929,0.286 0.754,0.45 1.131,1.173 1.131,2.173 0,0.315 -0.053,0.689 -0.161,1.124l0.657 0 0.411 0 0.913 0c0.553,0 0.829,-0.299 0.829,-0.899l0 -1.67 1.174 0 0 1.551c0,0.679 0.388,1.018 1.162,1.018 0.435,-1.15 0.937,-2.034 1.506,-2.653 0.571,-0.62 1.169,-0.93 1.793,-0.93 0.293,0 0.601,0.096 0.929,0.286 0.754,0.45 1.131,1.173 1.131,2.173 0,0.315 -0.054,0.689 -0.162,1.124l0.646 0 0.423 0 0.525 0c0.455,0 0.758,-0.022 0.907,-0.064 0.496,-0.055 0.962,-0.184 1.396,-0.382 0.292,-0.123 0.685,-0.337 1.178,-0.643l1.131 -0.622c-0.115,-0.3 -0.386,-0.505 -0.813,-0.612 -0.382,-0.063 -1.41,-0.095 -3.086,-0.095l-0.171 -1.165 2.939 0c0.775,0 1.373,0.21 1.798,0.629 0.424,0.421 0.635,1.036 0.635,1.843l-1.11 0.608c0,0.31 0.433,0.478 1.297,0.503l1.382 0c0.393,0 0.66,-0.102 0.802,-0.303 0.055,-0.097 0.084,-0.307 0.084,-0.631l0 -1.634 1.227 0 0 1.806zm-1.515 -3.825c0,-0.107 0.021,-0.211 0.062,-0.309 0.041,-0.096 0.099,-0.182 0.171,-0.255 0.072,-0.073 0.158,-0.132 0.256,-0.174 0.096,-0.045 0.201,-0.066 0.311,-0.066 0.107,0 0.21,0.021 0.306,0.066 0.098,0.042 0.183,0.101 0.256,0.174 0.073,0.073 0.13,0.159 0.173,0.255 0.044,0.098 0.065,0.202 0.065,0.309 0,0.112 -0.021,0.215 -0.065,0.312 -0.043,0.096 -0.1,0.18 -0.173,0.253 -0.073,0.073 -0.158,0.13 -0.256,0.173 -0.096,0.041 -0.199,0.062 -0.306,0.062 -0.11,0 -0.215,-0.021 -0.311,-0.062 -0.098,-0.043 -0.184,-0.1 -0.256,-0.173 -0.072,-0.073 -0.13,-0.157 -0.171,-0.253 -0.041,-0.097 -0.062,-0.2 -0.062,-0.312zm-1.815 0c0,-0.107 0.021,-0.211 0.062,-0.309 0.043,-0.096 0.1,-0.182 0.173,-0.255 0.073,-0.073 0.157,-0.132 0.253,-0.174 0.095,-0.045 0.199,-0.066 0.311,-0.066 0.106,0 0.21,0.021 0.307,0.066 0.097,0.042 0.182,0.101 0.255,0.174 0.073,0.073 0.132,0.159 0.174,0.255 0.045,0.098 0.066,0.202 0.066,0.309 0,0.112 -0.021,0.215 -0.066,0.312 -0.042,0.096 -0.101,0.18 -0.174,0.253 -0.073,0.073 -0.158,0.13 -0.255,0.173 -0.097,0.041 -0.201,0.062 -0.307,0.062 -0.112,0 -0.216,-0.021 -0.311,-0.062 -0.096,-0.043 -0.18,-0.1 -0.253,-0.173 -0.073,-0.073 -0.13,-0.157 -0.173,-0.253 -0.041,-0.097 -0.062,-0.2 -0.062,-0.312zm-4.452 -0.728c0,-0.107 0.022,-0.21 0.062,-0.308 0.043,-0.096 0.1,-0.182 0.173,-0.255 0.073,-0.073 0.158,-0.132 0.256,-0.175 0.096,-0.044 0.201,-0.066 0.313,-0.066 0.107,0 0.21,0.022 0.306,0.066 0.098,0.043 0.183,0.102 0.256,0.175 0.073,0.073 0.13,0.159 0.173,0.255 0.041,0.098 0.062,0.201 0.062,0.308 0,0.113 -0.021,0.216 -0.062,0.312 -0.043,0.096 -0.1,0.18 -0.173,0.253 -0.073,0.074 -0.158,0.13 -0.256,0.173 -0.096,0.041 -0.199,0.063 -0.306,0.063 -0.112,0 -0.217,-0.022 -0.313,-0.063 -0.098,-0.043 -0.183,-0.099 -0.256,-0.173 -0.073,-0.073 -0.13,-0.157 -0.173,-0.253 -0.04,-0.096 -0.062,-0.199 -0.062,-0.312zm-4.431 4.156c0,-0.499 -0.124,-0.87 -0.375,-1.113 -0.041,-0.028 -0.158,-0.064 -0.349,-0.105 -0.329,0 -0.733,0.253 -1.207,0.758 -0.369,0.4 -0.721,0.94 -1.057,1.619l2.316 0c0.448,0 0.672,-0.387 0.672,-1.159zm-10.344 0c0,-0.499 -0.124,-0.87 -0.375,-1.113 -0.041,-0.028 -0.158,-0.064 -0.348,-0.105 -0.33,0 -0.733,0.253 -1.208,0.758 -0.368,0.4 -0.721,0.94 -1.057,1.619l2.316 0c0.449,0 0.672,-0.387 0.672,-1.159zm-19.466 0.035c0,0.742 -0.167,1.331 -0.5,1.768 -0.372,0.483 -0.891,0.725 -1.56,0.725 -0.504,0 -0.948,-0.153 -1.334,-0.458 -0.361,0.152 -0.884,0.243 -1.569,0.268l0 0.008c-0.065,0 -0.128,-0.001 -0.19,-0.002l-0.013 0c-0.076,0.001 -0.155,0.002 -0.235,0.002l0 -0.013c-0.416,-0.028 -0.738,-0.099 -0.964,-0.212 -0.197,-0.101 -0.361,-0.29 -0.489,-0.568l-0.14 -0.617c-0.484,0.307 -0.952,0.569 -1.407,0.788 -0.401,0.178 -0.726,0.314 -0.98,0.408 -0.485,0.128 -1.301,0.198 -2.448,0.212l0 0.002 -0.359 0 -0.064 0 -5.596 0c-0.817,0 -1.379,-0.317 -1.685,-0.952 -0.471,0.635 -1.012,0.952 -1.622,0.952l-0.978 0 -0.451 0 -0.357 0c0,0.79 -0.299,1.507 -0.896,2.15 -0.257,0.261 -0.577,0.471 -0.961,0.63 -0.384,0.158 -0.786,0.237 -1.206,0.237l-1.537 0 -0.172 -1.177 1.517 0c0.583,0 1.063,-0.185 1.441,-0.556 0.377,-0.371 0.565,-0.799 0.565,-1.284 -0.937,0 -1.642,-0.124 -2.109,-0.376 -0.65,-0.314 -0.975,-0.938 -0.975,-1.87 0,-1.007 0.244,-1.726 0.729,-2.154 0.306,-0.247 0.774,-0.37 1.405,-0.37 0.904,0 1.536,0.385 1.896,1.155 0.202,0.49 0.303,1.299 0.303,2.428l0.357 0 0.451 0 0.873 0c0.553,0 0.829,-0.299 0.829,-0.899l0 -1.67 1.174 0 0 1.551c0,0.679 0.388,1.018 1.162,1.018 0.435,-1.15 0.937,-2.034 1.506,-2.653 0.571,-0.62 1.169,-0.93 1.793,-0.93 0.293,0 0.601,0.096 0.929,0.286 0.754,0.45 1.131,1.173 1.131,2.173 0,0.315 -0.054,0.689 -0.162,1.124l0.646 0 0.423 0 0.525 0c0.455,0 0.757,-0.022 0.907,-0.064 0.496,-0.055 0.962,-0.184 1.396,-0.382 0.292,-0.123 0.685,-0.337 1.178,-0.643l1.131 -0.622c-0.115,-0.3 -0.386,-0.505 -0.813,-0.612 -0.382,-0.063 -1.41,-0.095 -3.086,-0.095l-0.171 -1.165 2.939 0c0.775,0 1.373,0.21 1.798,0.629 0.424,0.421 0.635,1.036 0.635,1.843l-1.11 0.608c0,0.305 0.419,0.472 1.257,0.501 0.559,-0.01 0.895,-0.077 1.007,-0.201 0.041,-0.066 0.063,-0.373 0.063,-0.921 0,-0.693 0.183,-1.276 0.549,-1.75 0.367,-0.472 0.888,-0.709 1.566,-0.709 0.645,0 1.15,0.239 1.513,0.714 0.363,0.478 0.545,1.059 0.545,1.745zm-1.014 0.002c0,-0.864 -0.349,-1.296 -1.046,-1.296 -0.69,0 -1.035,0.432 -1.035,1.296 0,0.869 0.345,1.304 1.035,1.304 0.697,0 1.046,-0.435 1.046,-1.304zm-12.907 -0.037c0,-0.499 -0.124,-0.87 -0.375,-1.113 -0.041,-0.028 -0.158,-0.064 -0.349,-0.105 -0.329,0 -0.733,0.253 -1.207,0.758 -0.369,0.4 -0.721,0.94 -1.057,1.619l2.316 0c0.448,0 0.672,-0.387 0.672,-1.159zm-10.215 1.159l0 -1.143c0,-0.474 -0.134,-0.813 -0.402,-1.018 -0.182,-0.157 -0.381,-0.235 -0.6,-0.235 -0.307,0 -0.525,0.078 -0.653,0.235 -0.177,0.184 -0.266,0.529 -0.266,1.037 0,0.436 0.126,0.732 0.379,0.889 0.252,0.157 0.766,0.235 1.542,0.235zm-4.573 -0.653c0,0.464 -0.105,0.849 -0.314,1.156 -0.339,0.456 -0.855,0.684 -1.547,0.684l-1.13 0c-1.549,0 -2.325,-0.613 -2.325,-1.84l0 -5.819 1.196 0 0 5.313c0,0.571 0.071,0.909 0.213,1.018 0.095,0.095 0.399,0.141 0.916,0.141l1.057 0c0.306,0 0.534,-0.102 0.683,-0.303 0.073,-0.171 0.109,-0.457 0.109,-0.856l0 -5.313 1.142 0 0 5.819zm-6.461 -0.109c0,0.523 -0.176,0.979 -0.528,1.366 -0.354,0.389 -0.751,0.583 -1.192,0.583l-6.283 0c-0.469,0 -0.869,-0.203 -1.2,-0.608 -0.333,-0.406 -0.498,-0.852 -0.498,-1.341l0 -1.806 1.184 0 0 1.634c0,0.285 0.036,0.495 0.105,0.631 0.128,0.201 0.385,0.303 0.767,0.303l5.578 0c0.383,0 0.635,-0.102 0.758,-0.303 0.076,-0.089 0.114,-0.302 0.114,-0.631l0 -1.634 1.195 0 0 1.806zm-4.568 -3.719c0,-0.106 0.021,-0.21 0.063,-0.308 0.04,-0.096 0.099,-0.181 0.17,-0.255 0.073,-0.073 0.159,-0.132 0.256,-0.174 0.097,-0.045 0.201,-0.067 0.312,-0.067 0.106,0 0.209,0.022 0.306,0.067 0.097,0.042 0.183,0.101 0.256,0.174 0.073,0.074 0.13,0.159 0.172,0.255 0.045,0.098 0.066,0.202 0.066,0.308 0,0.113 -0.021,0.216 -0.066,0.312 -0.042,0.097 -0.099,0.18 -0.172,0.254 -0.073,0.073 -0.159,0.13 -0.256,0.173 -0.097,0.041 -0.2,0.062 -0.306,0.062 -0.111,0 -0.215,-0.021 -0.312,-0.062 -0.097,-0.043 -0.183,-0.1 -0.256,-0.173 -0.071,-0.074 -0.13,-0.157 -0.17,-0.254 -0.042,-0.096 -0.063,-0.199 -0.063,-0.312zm-1.814 0c0,-0.106 0.021,-0.21 0.062,-0.308 0.043,-0.096 0.1,-0.181 0.173,-0.255 0.073,-0.073 0.156,-0.132 0.252,-0.174 0.096,-0.045 0.2,-0.067 0.312,-0.067 0.106,0 0.209,0.022 0.307,0.067 0.096,0.042 0.182,0.101 0.255,0.174 0.073,0.074 0.131,0.159 0.174,0.255 0.045,0.098 0.066,0.202 0.066,0.308 0,0.113 -0.021,0.216 -0.066,0.312 -0.043,0.097 -0.101,0.18 -0.174,0.254 -0.073,0.073 -0.159,0.13 -0.255,0.173 -0.098,0.041 -0.201,0.062 -0.307,0.062 -0.112,0 -0.216,-0.021 -0.312,-0.062 -0.096,-0.043 -0.179,-0.1 -0.252,-0.173 -0.073,-0.074 -0.13,-0.157 -0.173,-0.254 -0.041,-0.096 -0.062,-0.199 -0.062,-0.312zm-6.274 4.085c0,0.471 -0.16,0.852 -0.48,1.144 -0.32,0.293 -0.747,0.439 -1.282,0.439l-3.658 0 -0.172 -1.187 3.767 0c0.448,0 0.672,-0.157 0.672,-0.471 0,-0.166 -0.067,-0.312 -0.202,-0.437l-2.668 -2.845 0.796 -0.815 2.706 2.857c0.346,0.393 0.521,0.832 0.521,1.315zm-6.973 1.583l-1.184 0 0 -7.659 1.184 0 0 7.659zm-2.842 -0.215c0,0.864 -0.287,1.618 -0.859,2.264 -0.573,0.645 -1.279,0.968 -2.119,0.968l-1.569 0 -0.213 -1.22 1.334 0c0.704,0 1.264,-0.192 1.677,-0.579 0.34,-0.307 0.511,-0.685 0.511,-1.134l0 -3.839 1.238 0 0 3.54zm-5.397 0.374c0,0.69 -0.29,1.339 -0.872,1.947 -0.58,0.608 -1.286,0.911 -2.117,0.911l-1.517 0 -0.16 -1.177 1.494 0c0.592,0 1.073,-0.185 1.443,-0.556 0.37,-0.371 0.555,-0.799 0.555,-1.284 -0.916,0 -1.622,-0.124 -2.115,-0.376 -0.646,-0.314 -0.97,-0.938 -0.97,-1.87 0,-1.007 0.242,-1.726 0.724,-2.154 0.313,-0.255 0.788,-0.381 1.423,-0.381 0.897,0 1.516,0.374 1.856,1.123 0.17,0.449 0.256,1.221 0.256,2.319l0 1.498zm-1.174 -1.346l0 -1.254c0,-0.761 -0.313,-1.142 -0.939,-1.142 -0.292,0 -0.513,0.078 -0.662,0.235 -0.157,0.184 -0.235,0.529 -0.235,1.037 0,0.45 0.116,0.749 0.347,0.899 0.231,0.15 0.727,0.225 1.489,0.225zm-4.216 -1.124l-2.736 1.554c-0.597,0.342 -1.154,0.552 -1.67,0.634 -0.442,0.071 -1.108,0.111 -1.997,0.121l0 0.002 -0.144 -0.001 -0.008 0 -0.307 0.001 0 -0.014c-0.793,-0.05 -1.351,-0.238 -1.674,-0.565 -0.272,-0.3 -0.407,-0.718 -0.407,-1.259l0 -5.65 1.195 0 0 5.142c0,0.537 0.071,0.863 0.213,0.981 0.14,0.117 0.508,0.176 1.103,0.178l0.029 0 0.489 0c0.455,0 0.758,-0.022 0.907,-0.064 0.496,-0.055 0.962,-0.184 1.396,-0.382 0.292,-0.123 0.685,-0.337 1.178,-0.643l1.131 -0.622c-0.115,-0.3 -0.386,-0.505 -0.813,-0.612 -0.382,-0.063 -1.41,-0.095 -3.086,-0.095l-0.171 -1.165 2.939 0c1.622,0 2.433,0.819 2.433,2.459zm-4.206 -4.319c0,-0.107 0.021,-0.211 0.062,-0.309 0.042,-0.096 0.099,-0.181 0.172,-0.255 0.073,-0.073 0.159,-0.132 0.256,-0.174 0.097,-0.045 0.201,-0.066 0.314,-0.066 0.106,0 0.209,0.021 0.305,0.066 0.098,0.042 0.183,0.101 0.257,0.174 0.072,0.074 0.129,0.159 0.172,0.255 0.041,0.098 0.062,0.202 0.062,0.309 0,0.112 -0.021,0.215 -0.062,0.312 -0.043,0.096 -0.1,0.18 -0.172,0.253 -0.074,0.073 -0.159,0.13 -0.257,0.173 -0.096,0.041 -0.199,0.062 -0.305,0.062 -0.113,0 -0.217,-0.021 -0.314,-0.062 -0.097,-0.043 -0.183,-0.1 -0.256,-0.173 -0.073,-0.073 -0.13,-0.157 -0.172,-0.253 -0.041,-0.097 -0.062,-0.2 -0.062,-0.312zm-9.408 6.63l-0.027 0 -0.456 0 0 -0.021c-0.305,-0.031 -0.525,-0.096 -0.659,-0.193 -0.095,-0.043 -0.511,-0.399 -1.251,-1.071 -0.448,0.95 -1.177,1.424 -2.19,1.424 -0.617,0 -1.151,-0.221 -1.599,-0.663 -0.448,-0.442 -0.672,-0.984 -0.672,-1.629 0,-0.436 0.153,-0.876 0.459,-1.325 0.163,-0.255 0.475,-0.606 0.937,-1.055l-0.348 -0.407 0.818 -0.815 3.565 3.798c0.291,0.312 0.512,0.529 0.661,0.652 0.137,0.071 0.348,0.109 0.634,0.118l1.204 0c0.393,0 0.66,-0.102 0.802,-0.303 0.055,-0.097 0.083,-0.307 0.083,-0.631l0 -1.634 1.228 0 0 1.806c0,0.523 -0.172,0.979 -0.518,1.366 -0.345,0.389 -0.752,0.583 -1.22,0.583l-1.451 0zm-3.428 -2.061c0,-0.201 -0.071,-0.419 -0.214,-0.652l-0.948 -0.95c-0.448,0.41 -0.736,0.721 -0.866,0.932 -0.128,0.21 -0.192,0.433 -0.192,0.67 0,0.198 0.091,0.425 0.274,0.678 0.181,0.251 0.453,0.378 0.815,0.378 0.352,0 0.64,-0.134 0.866,-0.403 0.176,-0.202 0.265,-0.419 0.265,-0.653z"/>
   <path fill="#F8AF02" stroke="#F8AF02" stroke-width="0.216" stroke-miterlimit="2.61313" d="M84.965 11.18c0.169,0.858 0.909,0.514 1.392,0.193 1.041,-0.691 2.466,-0.945 4.389,-0.878 -2.134,0.872 -4.182,1.68 -5.526,3.675 -0.608,0.904 -0.245,1.286 0.4,1.41 2.272,0.438 4.905,-1.456 6.129,-3.203 0.979,-1.396 1.633,-3.037 1.869,-4.473 0.123,-0.749 0.102,-0.545 -0.437,-0.206 -1.914,1.203 -3.847,1.164 -5.549,1.434 -1.287,0.203 -2.977,0.468 -2.667,2.048z"/>
  </g>
 </g>
</svg>
