<?xml version="1.0" encoding="UTF-8" standalone="no"?>
<!DOCTYPE svg PUBLIC "-//W3C//DTD SVG 1.1//EN"
 "http://www.w3.org/Graphics/SVG/1.1/DTD/svg11.dtd">
<!-- Generated by graphviz version 2.47.3 (20210619.1520)
 -->
<!-- Title: dependencies Pages: 1 -->
<svg width="1771pt" height="174pt"
 viewBox="0.00 0.00 1771.00 173.80" xmlns="http://www.w3.org/2000/svg" xmlns:xlink="http://www.w3.org/1999/xlink">
<g id="graph0" class="graph" transform="scale(1 1) rotate(0) translate(4 169.8)">
<title>dependencies</title>
<polygon fill="white" stroke="transparent" points="-4,4 -4,-169.8 1767,-169.8 1767,4 -4,4"/>
<text text-anchor="middle" x="881.5" y="-8.2" font-family="sans-serif" font-size="14.00">dependencies</text>
<g id="clust1" class="cluster">
<title>cluster_SiteModule</title>
<polygon fill="none" stroke="black" stroke-dasharray="1,5" points="8,-32.8 8,-157.8 1755,-157.8 1755,-32.8 8,-32.8"/>
</g>
<g id="clust11" class="cluster">
<title>cluster_SiteModule_imports</title>
<polygon fill="none" stroke="black" points="1480,-40.8 1480,-92.8 1747,-92.8 1747,-40.8 1480,-40.8"/>
</g>
<g id="clust2" class="cluster">
<title>cluster_SiteModule_declarations</title>
<polygon fill="none" stroke="black" points="326,-40.8 326,-92.8 1472,-92.8 1472,-40.8 326,-40.8"/>
</g>
<g id="clust14" class="cluster">
<title>cluster_SiteModule_providers</title>
<polygon fill="none" stroke="black" points="16,-40.8 16,-92.8 318,-92.8 318,-40.8 16,-40.8"/>
</g>
<!-- FooterComponent -->
<g id="node1" class="node">
<title>FooterComponent</title>
<polygon fill="#ffffb3" stroke="black" points="1463.88,-84.8 1346.12,-84.8 1346.12,-48.8 1463.88,-48.8 1463.88,-84.8"/>
<text text-anchor="middle" x="1405" y="-62.6" font-family="Times,serif" font-size="14.00">FooterComponent</text>
</g>
<!-- SiteModule -->
<g id="node9" class="node">
<title>SiteModule</title>
<polygon fill="#8dd3c7" stroke="black" points="968.83,-149.8 965.83,-153.8 944.83,-153.8 941.83,-149.8 887.17,-149.8 887.17,-113.8 968.83,-113.8 968.83,-149.8"/>
<text text-anchor="middle" x="928" y="-127.6" font-family="Times,serif" font-size="14.00">SiteModule</text>
</g>
<!-- FooterComponent&#45;&gt;SiteModule -->
<g id="edge1" class="edge">
<title>FooterComponent&#45;&gt;SiteModule</title>
<path fill="none" stroke="black" d="M1405,-84.91C1405,-104.14 1405,-131.8 1405,-131.8 1405,-131.8 978.67,-131.8 978.67,-131.8"/>
<polygon fill="black" stroke="black" points="978.67,-128.3 968.67,-131.8 978.67,-135.3 978.67,-128.3"/>
</g>
<!-- HeaderComponent -->
<g id="node2" class="node">
<title>HeaderComponent</title>
<polygon fill="#ffffb3" stroke="black" points="1327.74,-84.8 1206.26,-84.8 1206.26,-48.8 1327.74,-48.8 1327.74,-84.8"/>
<text text-anchor="middle" x="1267" y="-62.6" font-family="Times,serif" font-size="14.00">HeaderComponent</text>
</g>
<!-- HeaderComponent&#45;&gt;SiteModule -->
<g id="edge2" class="edge">
<title>HeaderComponent&#45;&gt;SiteModule</title>
<path fill="none" stroke="black" d="M1267,-84.82C1267,-102.17 1267,-125.8 1267,-125.8 1267,-125.8 978.89,-125.8 978.89,-125.8"/>
<polygon fill="black" stroke="black" points="978.89,-122.3 968.89,-125.8 978.89,-129.3 978.89,-122.3"/>
</g>
<!-- HomeComponent -->
<g id="node3" class="node">
<title>HomeComponent</title>
<polygon fill="#ffffb3" stroke="black" points="1187.55,-84.8 1072.45,-84.8 1072.45,-48.8 1187.55,-48.8 1187.55,-84.8"/>
<text text-anchor="middle" x="1130" y="-62.6" font-family="Times,serif" font-size="14.00">HomeComponent</text>
</g>
<!-- HomeComponent&#45;&gt;SiteModule -->
<g id="edge3" class="edge">
<title>HomeComponent&#45;&gt;SiteModule</title>
<path fill="none" stroke="black" d="M1130,-85.04C1130,-100.37 1130,-119.8 1130,-119.8 1130,-119.8 978.88,-119.8 978.88,-119.8"/>
<polygon fill="black" stroke="black" points="978.88,-116.3 968.88,-119.8 978.88,-123.3 978.88,-116.3"/>
</g>
<!-- MenuComponent -->
<g id="node4" class="node">
<title>MenuComponent</title>
<polygon fill="#ffffb3" stroke="black" points="1053.99,-84.8 940.01,-84.8 940.01,-48.8 1053.99,-48.8 1053.99,-84.8"/>
<text text-anchor="middle" x="997" y="-62.6" font-family="Times,serif" font-size="14.00">MenuComponent</text>
</g>
<!-- MenuComponent&#45;&gt;SiteModule -->
<g id="edge4" class="edge">
<title>MenuComponent&#45;&gt;SiteModule</title>
<path fill="none" stroke="black" d="M954.33,-84.91C954.33,-84.91 954.33,-103.79 954.33,-103.79"/>
<polygon fill="black" stroke="black" points="950.83,-103.79 954.33,-113.79 957.83,-103.79 950.83,-103.79"/>
</g>
<!-- ProductComponent -->
<g id="node5" class="node">
<title>ProductComponent</title>
<polygon fill="#ffffb3" stroke="black" points="922.38,-84.8 797.62,-84.8 797.62,-48.8 922.38,-48.8 922.38,-84.8"/>
<text text-anchor="middle" x="860" y="-62.6" font-family="Times,serif" font-size="14.00">ProductComponent</text>
</g>
<!-- ProductComponent&#45;&gt;SiteModule -->
<g id="edge5" class="edge">
<title>ProductComponent&#45;&gt;SiteModule</title>
<path fill="none" stroke="black" d="M904.89,-84.91C904.89,-84.91 904.89,-103.79 904.89,-103.79"/>
<polygon fill="black" stroke="black" points="901.39,-103.79 904.89,-113.79 908.39,-103.79 901.39,-103.79"/>
</g>
<!-- ProductListComponent -->
<g id="node6" class="node">
<title>ProductListComponent</title>
<polygon fill="#ffffb3" stroke="black" points="779.16,-84.8 632.84,-84.8 632.84,-48.8 779.16,-48.8 779.16,-84.8"/>
<text text-anchor="middle" x="706" y="-62.6" font-family="Times,serif" font-size="14.00">ProductListComponent</text>
</g>
<!-- ProductListComponent&#45;&gt;SiteModule -->
<g id="edge6" class="edge">
<title>ProductListComponent&#45;&gt;SiteModule</title>
<path fill="none" stroke="black" d="M706,-85.04C706,-100.37 706,-119.8 706,-119.8 706,-119.8 877.28,-119.8 877.28,-119.8"/>
<polygon fill="black" stroke="black" points="877.28,-123.3 887.28,-119.8 877.28,-116.3 877.28,-123.3"/>
</g>
<!-- ShoppingCartComponent -->
<g id="node7" class="node">
<title>ShoppingCartComponent</title>
<polygon fill="#ffffb3" stroke="black" points="614.61,-84.8 455.39,-84.8 455.39,-48.8 614.61,-48.8 614.61,-84.8"/>
<text text-anchor="middle" x="535" y="-62.6" font-family="Times,serif" font-size="14.00">ShoppingCartComponent</text>
</g>
<!-- ShoppingCartComponent&#45;&gt;SiteModule -->
<g id="edge7" class="edge">
<title>ShoppingCartComponent&#45;&gt;SiteModule</title>
<path fill="none" stroke="black" d="M535,-84.82C535,-102.17 535,-125.8 535,-125.8 535,-125.8 877.05,-125.8 877.05,-125.8"/>
<polygon fill="black" stroke="black" points="877.05,-129.3 887.05,-125.8 877.05,-122.3 877.05,-129.3"/>
</g>
<!-- SiteComponent -->
<g id="node8" class="node">
<title>SiteComponent</title>
<polygon fill="#ffffb3" stroke="black" points="437.61,-84.8 334.39,-84.8 334.39,-48.8 437.61,-48.8 437.61,-84.8"/>
<text text-anchor="middle" x="386" y="-62.6" font-family="Times,serif" font-size="14.00">SiteComponent</text>
</g>
<!-- SiteComponent&#45;&gt;SiteModule -->
<g id="edge8" class="edge">
<title>SiteComponent&#45;&gt;SiteModule</title>
<path fill="none" stroke="black" d="M386,-84.91C386,-104.14 386,-131.8 386,-131.8 386,-131.8 877.26,-131.8 877.26,-131.8"/>
<polygon fill="black" stroke="black" points="877.26,-135.3 887.26,-131.8 877.26,-128.3 877.26,-135.3"/>
</g>
<!-- MaterialModule -->
<g id="node10" class="node">
<title>MaterialModule</title>
<polygon fill="#8dd3c7" stroke="black" points="1739.47,-84.8 1736.47,-88.8 1715.47,-88.8 1712.47,-84.8 1632.53,-84.8 1632.53,-48.8 1739.47,-48.8 1739.47,-84.8"/>
<text text-anchor="middle" x="1686" y="-62.6" font-family="Times,serif" font-size="14.00">MaterialModule</text>
</g>
<!-- MaterialModule&#45;&gt;SiteModule -->
<g id="edge9" class="edge">
<title>MaterialModule&#45;&gt;SiteModule</title>
<path fill="none" stroke="black" d="M1686,-84.89C1686,-107.93 1686,-144.8 1686,-144.8 1686,-144.8 978.75,-144.8 978.75,-144.8"/>
<polygon fill="black" stroke="black" points="978.75,-141.3 968.75,-144.8 978.75,-148.3 978.75,-141.3"/>
</g>
<!-- SiteRoutingModule -->
<g id="node11" class="node">
<title>SiteRoutingModule</title>
<polygon fill="#8dd3c7" stroke="black" points="1614.45,-84.8 1611.45,-88.8 1590.45,-88.8 1587.45,-84.8 1487.55,-84.8 1487.55,-48.8 1614.45,-48.8 1614.45,-84.8"/>
<text text-anchor="middle" x="1551" y="-62.6" font-family="Times,serif" font-size="14.00">SiteRoutingModule</text>
</g>
<!-- SiteRoutingModule&#45;&gt;SiteModule -->
<g id="edge10" class="edge">
<title>SiteRoutingModule&#45;&gt;SiteModule</title>
<path fill="none" stroke="black" d="M1551,-85.08C1551,-106.12 1551,-137.8 1551,-137.8 1551,-137.8 978.88,-137.8 978.88,-137.8"/>
<polygon fill="black" stroke="black" points="978.88,-134.3 968.88,-137.8 978.88,-141.3 978.88,-134.3"/>
</g>
<!-- HomeService -->
<g id="node12" class="node">
<title>HomeService</title>
<ellipse fill="#fdb462" stroke="black" cx="246" cy="-66.8" rx="63.68" ry="18"/>
<text text-anchor="middle" x="246" y="-62.6" font-family="Times,serif" font-size="14.00">HomeService</text>
</g>
<!-- HomeService&#45;&gt;SiteModule -->
<g id="edge11" class="edge">
<title>HomeService&#45;&gt;SiteModule</title>
<path fill="none" stroke="black" d="M246,-85.08C246,-106.12 246,-137.8 246,-137.8 246,-137.8 877.13,-137.8 877.13,-137.8"/>
<polygon fill="black" stroke="black" points="877.13,-141.3 887.13,-137.8 877.13,-134.3 877.13,-141.3"/>
</g>
<!-- ProductService -->
<g id="node13" class="node">
<title>ProductService</title>
<ellipse fill="#fdb462" stroke="black" cx="94" cy="-66.8" rx="70.06" ry="18"/>
<text text-anchor="middle" x="94" y="-62.6" font-family="Times,serif" font-size="14.00">ProductService</text>
</g>
<!-- ProductService&#45;&gt;SiteModule -->
<g id="edge12" class="edge">
<title>ProductService&#45;&gt;SiteModule</title>
<path fill="none" stroke="black" d="M94,-84.89C94,-107.93 94,-144.8 94,-144.8 94,-144.8 877.21,-144.8 877.21,-144.8"/>
<polygon fill="black" stroke="black" points="877.21,-148.3 887.21,-144.8 877.21,-141.3 877.21,-148.3"/>
</g>
</g>
</svg>
