<?xml version="1.0" encoding="UTF-8" standalone="no"?>
<!DOCTYPE svg PUBLIC "-//W3C//DTD SVG 1.1//EN"
 "http://www.w3.org/Graphics/SVG/1.1/DTD/svg11.dtd">
<!-- Generated by graphviz version 2.47.3 (20210619.1520)
 -->
<!-- Title: dependencies Pages: 1 -->
<svg width="4794pt" height="174pt"
 viewBox="0.00 0.00 4794.00 173.80" xmlns="http://www.w3.org/2000/svg" xmlns:xlink="http://www.w3.org/1999/xlink">
<g id="graph0" class="graph" transform="scale(1 1) rotate(0) translate(4 169.8)">
<title>dependencies</title>
<polygon fill="white" stroke="transparent" points="-4,4 -4,-169.8 4790,-169.8 4790,4 -4,4"/>
<text text-anchor="middle" x="2393" y="-8.2" font-family="sans-serif" font-size="14.00">dependencies</text>
<g id="clust1" class="cluster">
<title>cluster_UserModule</title>
<polygon fill="none" stroke="black" stroke-dasharray="1,5" points="8,-32.8 8,-157.8 4778,-157.8 4778,-32.8 8,-32.8"/>
</g>
<g id="clust28" class="cluster">
<title>cluster_UserModule_providers</title>
<polygon fill="none" stroke="black" points="3992,-40.8 3992,-92.8 4770,-92.8 4770,-40.8 3992,-40.8"/>
</g>
<g id="clust25" class="cluster">
<title>cluster_UserModule_imports</title>
<polygon fill="none" stroke="black" points="3712,-40.8 3712,-92.8 3984,-92.8 3984,-40.8 3712,-40.8"/>
</g>
<g id="clust2" class="cluster">
<title>cluster_UserModule_declarations</title>
<polygon fill="none" stroke="black" points="16,-40.8 16,-92.8 3704,-92.8 3704,-40.8 16,-40.8"/>
</g>
<!-- AddWalletComponent -->
<g id="node1" class="node">
<title>AddWalletComponent</title>
<polygon fill="#ffffb3" stroke="black" points="3696.25,-84.8 3553.75,-84.8 3553.75,-48.8 3696.25,-48.8 3696.25,-84.8"/>
<text text-anchor="middle" x="3625" y="-62.6" font-family="Times,serif" font-size="14.00">AddWalletComponent</text>
</g>
<!-- UserModule -->
<g id="node23" class="node">
<title>UserModule</title>
<polygon fill="#8dd3c7" stroke="black" points="2421.98,-149.8 2418.98,-153.8 2397.98,-153.8 2394.98,-149.8 2336.02,-149.8 2336.02,-113.8 2421.98,-113.8 2421.98,-149.8"/>
<text text-anchor="middle" x="2379" y="-127.6" font-family="Times,serif" font-size="14.00">UserModule</text>
</g>
<!-- AddWalletComponent&#45;&gt;UserModule -->
<g id="edge1" class="edge">
<title>AddWalletComponent&#45;&gt;UserModule</title>
<path fill="none" stroke="black" d="M3625,-84.97C3625,-103.89 3625,-130.8 3625,-130.8 3625,-130.8 2432.25,-130.8 2432.25,-130.8"/>
<polygon fill="black" stroke="black" points="2432.25,-127.3 2422.25,-130.8 2432.25,-134.3 2432.25,-127.3"/>
</g>
<!-- ChatMessageTicketComponent -->
<g id="node2" class="node">
<title>ChatMessageTicketComponent</title>
<polygon fill="#ffffb3" stroke="black" points="3535.02,-84.8 3342.98,-84.8 3342.98,-48.8 3535.02,-48.8 3535.02,-84.8"/>
<text text-anchor="middle" x="3439" y="-62.6" font-family="Times,serif" font-size="14.00">ChatMessageTicketComponent</text>
</g>
<!-- ChatMessageTicketComponent&#45;&gt;UserModule -->
<g id="edge2" class="edge">
<title>ChatMessageTicketComponent&#45;&gt;UserModule</title>
<path fill="none" stroke="black" d="M3439,-85.07C3439,-103.36 3439,-128.8 3439,-128.8 3439,-128.8 2432.2,-128.8 2432.2,-128.8"/>
<polygon fill="black" stroke="black" points="2432.2,-125.3 2422.2,-128.8 2432.2,-132.3 2432.2,-125.3"/>
</g>
<!-- ChatTicketComponent -->
<g id="node3" class="node">
<title>ChatTicketComponent</title>
<polygon fill="#ffffb3" stroke="black" points="3324.54,-84.8 3181.46,-84.8 3181.46,-48.8 3324.54,-48.8 3324.54,-84.8"/>
<text text-anchor="middle" x="3253" y="-62.6" font-family="Times,serif" font-size="14.00">ChatTicketComponent</text>
</g>
<!-- ChatTicketComponent&#45;&gt;UserModule -->
<g id="edge3" class="edge">
<title>ChatTicketComponent&#45;&gt;UserModule</title>
<path fill="none" stroke="black" d="M3253,-84.82C3253,-102.17 3253,-125.8 3253,-125.8 3253,-125.8 2432.04,-125.8 2432.04,-125.8"/>
<polygon fill="black" stroke="black" points="2432.04,-122.3 2422.04,-125.8 2432.04,-129.3 2432.04,-122.3"/>
</g>
<!-- CreateFormTicketComponent -->
<g id="node4" class="node">
<title>CreateFormTicketComponent</title>
<polygon fill="#ffffb3" stroke="black" points="3162.96,-84.8 2979.04,-84.8 2979.04,-48.8 3162.96,-48.8 3162.96,-84.8"/>
<text text-anchor="middle" x="3071" y="-62.6" font-family="Times,serif" font-size="14.00">CreateFormTicketComponent</text>
</g>
<!-- CreateFormTicketComponent&#45;&gt;UserModule -->
<g id="edge4" class="edge">
<title>CreateFormTicketComponent&#45;&gt;UserModule</title>
<path fill="none" stroke="black" d="M3071,-84.84C3071,-101.53 3071,-123.8 3071,-123.8 3071,-123.8 2432.03,-123.8 2432.03,-123.8"/>
<polygon fill="black" stroke="black" points="2432.03,-120.3 2422.03,-123.8 2432.03,-127.3 2432.03,-120.3"/>
</g>
<!-- DetailTicketComponent -->
<g id="node5" class="node">
<title>DetailTicketComponent</title>
<polygon fill="#ffffb3" stroke="black" points="2960.8,-84.8 2809.2,-84.8 2809.2,-48.8 2960.8,-48.8 2960.8,-84.8"/>
<text text-anchor="middle" x="2885" y="-62.6" font-family="Times,serif" font-size="14.00">DetailTicketComponent</text>
</g>
<!-- DetailTicketComponent&#45;&gt;UserModule -->
<g id="edge5" class="edge">
<title>DetailTicketComponent&#45;&gt;UserModule</title>
<path fill="none" stroke="black" d="M2885,-84.81C2885,-100.85 2885,-121.8 2885,-121.8 2885,-121.8 2432.14,-121.8 2432.14,-121.8"/>
<polygon fill="black" stroke="black" points="2432.14,-118.3 2422.14,-121.8 2432.14,-125.3 2432.14,-118.3"/>
</g>
<!-- EditProfileComponent -->
<g id="node6" class="node">
<title>EditProfileComponent</title>
<polygon fill="#ffffb3" stroke="black" points="2791.27,-84.8 2648.73,-84.8 2648.73,-48.8 2791.27,-48.8 2791.27,-84.8"/>
<text text-anchor="middle" x="2720" y="-62.6" font-family="Times,serif" font-size="14.00">EditProfileComponent</text>
</g>
<!-- EditProfileComponent&#45;&gt;UserModule -->
<g id="edge6" class="edge">
<title>EditProfileComponent&#45;&gt;UserModule</title>
<path fill="none" stroke="black" d="M2720,-84.99C2720,-99.98 2720,-118.8 2720,-118.8 2720,-118.8 2432.19,-118.8 2432.19,-118.8"/>
<polygon fill="black" stroke="black" points="2432.19,-115.3 2422.19,-118.8 2432.19,-122.3 2432.19,-115.3"/>
</g>
<!-- EditUserAddressComponent -->
<g id="node7" class="node">
<title>EditUserAddressComponent</title>
<polygon fill="#ffffb3" stroke="black" points="2630.46,-84.8 2453.54,-84.8 2453.54,-48.8 2630.46,-48.8 2630.46,-84.8"/>
<text text-anchor="middle" x="2542" y="-62.6" font-family="Times,serif" font-size="14.00">EditUserAddressComponent</text>
</g>
<!-- EditUserAddressComponent&#45;&gt;UserModule -->
<g id="edge7" class="edge">
<title>EditUserAddressComponent&#45;&gt;UserModule</title>
<path fill="none" stroke="black" d="M2542,-84.85C2542,-99.17 2542,-116.8 2542,-116.8 2542,-116.8 2432.25,-116.8 2432.25,-116.8"/>
<polygon fill="black" stroke="black" points="2432.25,-113.3 2422.25,-116.8 2432.25,-120.3 2432.25,-113.3"/>
</g>
<!-- ItemsComponent -->
<g id="node8" class="node">
<title>ItemsComponent</title>
<polygon fill="#ffffb3" stroke="black" points="2435.43,-84.8 2322.57,-84.8 2322.57,-48.8 2435.43,-48.8 2435.43,-84.8"/>
<text text-anchor="middle" x="2379" y="-62.6" font-family="Times,serif" font-size="14.00">ItemsComponent</text>
</g>
<!-- ItemsComponent&#45;&gt;UserModule -->
<g id="edge8" class="edge">
<title>ItemsComponent&#45;&gt;UserModule</title>
<path fill="none" stroke="black" d="M2379,-84.91C2379,-84.91 2379,-103.79 2379,-103.79"/>
<polygon fill="black" stroke="black" points="2375.5,-103.79 2379,-113.79 2382.5,-103.79 2375.5,-103.79"/>
</g>
<!-- ListTicketComponent -->
<g id="node9" class="node">
<title>ListTicketComponent</title>
<polygon fill="#ffffb3" stroke="black" points="2304.37,-84.8 2165.63,-84.8 2165.63,-48.8 2304.37,-48.8 2304.37,-84.8"/>
<text text-anchor="middle" x="2235" y="-62.6" font-family="Times,serif" font-size="14.00">ListTicketComponent</text>
</g>
<!-- ListTicketComponent&#45;&gt;UserModule -->
<g id="edge9" class="edge">
<title>ListTicketComponent&#45;&gt;UserModule</title>
<path fill="none" stroke="black" d="M2235,-84.85C2235,-99.17 2235,-116.8 2235,-116.8 2235,-116.8 2325.8,-116.8 2325.8,-116.8"/>
<polygon fill="black" stroke="black" points="2325.8,-120.3 2335.8,-116.8 2325.8,-113.3 2325.8,-120.3"/>
</g>
<!-- ManageOrderComponent -->
<g id="node10" class="node">
<title>ManageOrderComponent</title>
<polygon fill="#ffffb3" stroke="black" points="2147.56,-84.8 1988.44,-84.8 1988.44,-48.8 2147.56,-48.8 2147.56,-84.8"/>
<text text-anchor="middle" x="2068" y="-62.6" font-family="Times,serif" font-size="14.00">ManageOrderComponent</text>
</g>
<!-- ManageOrderComponent&#45;&gt;UserModule -->
<g id="edge10" class="edge">
<title>ManageOrderComponent&#45;&gt;UserModule</title>
<path fill="none" stroke="black" d="M2068,-84.99C2068,-99.98 2068,-118.8 2068,-118.8 2068,-118.8 2325.76,-118.8 2325.76,-118.8"/>
<polygon fill="black" stroke="black" points="2325.76,-122.3 2335.76,-118.8 2325.76,-115.3 2325.76,-122.3"/>
</g>
<!-- ManageTicketComponent -->
<g id="node11" class="node">
<title>ManageTicketComponent</title>
<polygon fill="#ffffb3" stroke="black" points="1970.18,-84.8 1807.82,-84.8 1807.82,-48.8 1970.18,-48.8 1970.18,-84.8"/>
<text text-anchor="middle" x="1889" y="-62.6" font-family="Times,serif" font-size="14.00">ManageTicketComponent</text>
</g>
<!-- ManageTicketComponent&#45;&gt;UserModule -->
<g id="edge11" class="edge">
<title>ManageTicketComponent&#45;&gt;UserModule</title>
<path fill="none" stroke="black" d="M1889,-84.81C1889,-100.85 1889,-121.8 1889,-121.8 1889,-121.8 2325.95,-121.8 2325.95,-121.8"/>
<polygon fill="black" stroke="black" points="2325.95,-125.3 2335.95,-121.8 2325.95,-118.3 2325.95,-125.3"/>
</g>
<!-- ManageUserAddressComponent -->
<g id="node12" class="node">
<title>ManageUserAddressComponent</title>
<polygon fill="#ffffb3" stroke="black" points="1790.22,-84.8 1591.78,-84.8 1591.78,-48.8 1790.22,-48.8 1790.22,-84.8"/>
<text text-anchor="middle" x="1691" y="-62.6" font-family="Times,serif" font-size="14.00">ManageUserAddressComponent</text>
</g>
<!-- ManageUserAddressComponent&#45;&gt;UserModule -->
<g id="edge12" class="edge">
<title>ManageUserAddressComponent&#45;&gt;UserModule</title>
<path fill="none" stroke="black" d="M1691,-84.84C1691,-101.53 1691,-123.8 1691,-123.8 1691,-123.8 2325.96,-123.8 2325.96,-123.8"/>
<polygon fill="black" stroke="black" points="2325.96,-127.3 2335.96,-123.8 2325.96,-120.3 2325.96,-127.3"/>
</g>
<!-- ManageWalletComponent -->
<g id="node13" class="node">
<title>ManageWalletComponent</title>
<polygon fill="#ffffb3" stroke="black" points="1573.74,-84.8 1410.26,-84.8 1410.26,-48.8 1573.74,-48.8 1573.74,-84.8"/>
<text text-anchor="middle" x="1492" y="-62.6" font-family="Times,serif" font-size="14.00">ManageWalletComponent</text>
</g>
<!-- ManageWalletComponent&#45;&gt;UserModule -->
<g id="edge13" class="edge">
<title>ManageWalletComponent&#45;&gt;UserModule</title>
<path fill="none" stroke="black" d="M1492,-84.82C1492,-102.17 1492,-125.8 1492,-125.8 1492,-125.8 2325.92,-125.8 2325.92,-125.8"/>
<polygon fill="black" stroke="black" points="2325.92,-129.3 2335.92,-125.8 2325.92,-122.3 2325.92,-129.3"/>
</g>
<!-- NotificationComponent -->
<g id="node14" class="node">
<title>NotificationComponent</title>
<polygon fill="#ffffb3" stroke="black" points="1392.48,-84.8 1243.52,-84.8 1243.52,-48.8 1392.48,-48.8 1392.48,-84.8"/>
<text text-anchor="middle" x="1318" y="-62.6" font-family="Times,serif" font-size="14.00">NotificationComponent</text>
</g>
<!-- NotificationComponent&#45;&gt;UserModule -->
<g id="edge14" class="edge">
<title>NotificationComponent&#45;&gt;UserModule</title>
<path fill="none" stroke="black" d="M1318,-85.07C1318,-103.36 1318,-128.8 1318,-128.8 1318,-128.8 2325.76,-128.8 2325.76,-128.8"/>
<polygon fill="black" stroke="black" points="2325.76,-132.3 2335.76,-128.8 2325.76,-125.3 2325.76,-132.3"/>
</g>
<!-- OrderItemsComponent -->
<g id="node15" class="node">
<title>OrderItemsComponent</title>
<polygon fill="#ffffb3" stroke="black" points="1225.58,-84.8 1080.42,-84.8 1080.42,-48.8 1225.58,-48.8 1225.58,-84.8"/>
<text text-anchor="middle" x="1153" y="-62.6" font-family="Times,serif" font-size="14.00">OrderItemsComponent</text>
</g>
<!-- OrderItemsComponent&#45;&gt;UserModule -->
<g id="edge15" class="edge">
<title>OrderItemsComponent&#45;&gt;UserModule</title>
<path fill="none" stroke="black" d="M1153,-84.97C1153,-103.89 1153,-130.8 1153,-130.8 1153,-130.8 2325.73,-130.8 2325.73,-130.8"/>
<polygon fill="black" stroke="black" points="2325.73,-134.3 2335.73,-130.8 2325.73,-127.3 2325.73,-134.3"/>
</g>
<!-- OrdersComponent -->
<g id="node16" class="node">
<title>OrdersComponent</title>
<polygon fill="#ffffb3" stroke="black" points="1062.92,-84.8 943.08,-84.8 943.08,-48.8 1062.92,-48.8 1062.92,-84.8"/>
<text text-anchor="middle" x="1003" y="-62.6" font-family="Times,serif" font-size="14.00">OrdersComponent</text>
</g>
<!-- OrdersComponent&#45;&gt;UserModule -->
<g id="edge16" class="edge">
<title>OrdersComponent&#45;&gt;UserModule</title>
<path fill="none" stroke="black" d="M1003,-85.11C1003,-104.95 1003,-133.8 1003,-133.8 1003,-133.8 2325.93,-133.8 2325.93,-133.8"/>
<polygon fill="black" stroke="black" points="2325.93,-137.3 2335.93,-133.8 2325.93,-130.3 2325.93,-137.3"/>
</g>
<!-- ProfileComponent -->
<g id="node17" class="node">
<title>ProfileComponent</title>
<polygon fill="#ffffb3" stroke="black" points="925.93,-84.8 806.07,-84.8 806.07,-48.8 925.93,-48.8 925.93,-84.8"/>
<text text-anchor="middle" x="866" y="-62.6" font-family="Times,serif" font-size="14.00">ProfileComponent</text>
</g>
<!-- ProfileComponent&#45;&gt;UserModule -->
<g id="edge17" class="edge">
<title>ProfileComponent&#45;&gt;UserModule</title>
<path fill="none" stroke="black" d="M866,-84.93C866,-105.37 866,-135.8 866,-135.8 866,-135.8 2325.75,-135.8 2325.75,-135.8"/>
<polygon fill="black" stroke="black" points="2325.75,-139.3 2335.75,-135.8 2325.75,-132.3 2325.75,-139.3"/>
</g>
<!-- TicketComponent -->
<g id="node18" class="node">
<title>TicketComponent</title>
<polygon fill="#ffffb3" stroke="black" points="788.6,-84.8 671.4,-84.8 671.4,-48.8 788.6,-48.8 788.6,-84.8"/>
<text text-anchor="middle" x="730" y="-62.6" font-family="Times,serif" font-size="14.00">TicketComponent</text>
</g>
<!-- TicketComponent&#45;&gt;UserModule -->
<g id="edge18" class="edge">
<title>TicketComponent&#45;&gt;UserModule</title>
<path fill="none" stroke="black" d="M730,-85.08C730,-106.12 730,-137.8 730,-137.8 730,-137.8 2325.74,-137.8 2325.74,-137.8"/>
<polygon fill="black" stroke="black" points="2325.74,-141.3 2335.74,-137.8 2325.74,-134.3 2325.74,-141.3"/>
</g>
<!-- UserAddressComponent -->
<g id="node19" class="node">
<title>UserAddressComponent</title>
<polygon fill="#ffffb3" stroke="black" points="653.63,-84.8 500.37,-84.8 500.37,-48.8 653.63,-48.8 653.63,-84.8"/>
<text text-anchor="middle" x="577" y="-62.6" font-family="Times,serif" font-size="14.00">UserAddressComponent</text>
</g>
<!-- UserAddressComponent&#45;&gt;UserModule -->
<g id="edge19" class="edge">
<title>UserAddressComponent&#45;&gt;UserModule</title>
<path fill="none" stroke="black" d="M577,-85.09C577,-107.01 577,-140.8 577,-140.8 577,-140.8 2325.79,-140.8 2325.79,-140.8"/>
<polygon fill="black" stroke="black" points="2325.79,-144.3 2335.79,-140.8 2325.79,-137.3 2325.79,-144.3"/>
</g>
<!-- UserComponent -->
<g id="node20" class="node">
<title>UserComponent</title>
<polygon fill="#ffffb3" stroke="black" points="481.76,-84.8 374.24,-84.8 374.24,-48.8 481.76,-48.8 481.76,-84.8"/>
<text text-anchor="middle" x="428" y="-62.6" font-family="Times,serif" font-size="14.00">UserComponent</text>
</g>
<!-- UserComponent&#45;&gt;UserModule -->
<g id="edge20" class="edge">
<title>UserComponent&#45;&gt;UserModule</title>
<path fill="none" stroke="black" d="M428,-84.81C428,-107.29 428,-142.8 428,-142.8 428,-142.8 2325.98,-142.8 2325.98,-142.8"/>
<polygon fill="black" stroke="black" points="2325.98,-146.3 2335.98,-142.8 2325.98,-139.3 2325.98,-146.3"/>
</g>
<!-- UserDashboardComponent -->
<g id="node21" class="node">
<title>UserDashboardComponent</title>
<polygon fill="#ffffb3" stroke="black" points="356.4,-84.8 187.6,-84.8 187.6,-48.8 356.4,-48.8 356.4,-84.8"/>
<text text-anchor="middle" x="272" y="-62.6" font-family="Times,serif" font-size="14.00">UserDashboardComponent</text>
</g>
<!-- UserDashboardComponent&#45;&gt;UserModule -->
<g id="edge21" class="edge">
<title>UserDashboardComponent&#45;&gt;UserModule</title>
<path fill="none" stroke="black" d="M272,-85.12C272,-108.46 272,-145.8 272,-145.8 272,-145.8 2325.96,-145.8 2325.96,-145.8"/>
<polygon fill="black" stroke="black" points="2325.96,-149.3 2335.96,-145.8 2325.96,-142.3 2325.96,-149.3"/>
</g>
<!-- UserWalletComponent -->
<g id="node22" class="node">
<title>UserWalletComponent</title>
<polygon fill="#ffffb3" stroke="black" points="169.57,-84.8 24.43,-84.8 24.43,-48.8 169.57,-48.8 169.57,-84.8"/>
<text text-anchor="middle" x="97" y="-62.6" font-family="Times,serif" font-size="14.00">UserWalletComponent</text>
</g>
<!-- UserWalletComponent&#45;&gt;UserModule -->
<g id="edge22" class="edge">
<title>UserWalletComponent&#45;&gt;UserModule</title>
<path fill="none" stroke="black" d="M97,-85.18C97,-109.08 97,-147.8 97,-147.8 97,-147.8 2325.95,-147.8 2325.95,-147.8"/>
<polygon fill="black" stroke="black" points="2325.95,-151.3 2335.95,-147.8 2325.95,-144.3 2325.95,-151.3"/>
</g>
<!-- MaterialModule -->
<g id="node24" class="node">
<title>MaterialModule</title>
<polygon fill="#8dd3c7" stroke="black" points="3976.47,-84.8 3973.47,-88.8 3952.47,-88.8 3949.47,-84.8 3869.53,-84.8 3869.53,-48.8 3976.47,-48.8 3976.47,-84.8"/>
<text text-anchor="middle" x="3923" y="-62.6" font-family="Times,serif" font-size="14.00">MaterialModule</text>
</g>
<!-- MaterialModule&#45;&gt;UserModule -->
<g id="edge23" class="edge">
<title>MaterialModule&#45;&gt;UserModule</title>
<path fill="none" stroke="black" d="M3923,-84.93C3923,-105.37 3923,-135.8 3923,-135.8 3923,-135.8 2432.31,-135.8 2432.31,-135.8"/>
<polygon fill="black" stroke="black" points="2432.31,-132.3 2422.31,-135.8 2432.31,-139.3 2432.31,-132.3"/>
</g>
<!-- UserRoutingModule -->
<g id="node25" class="node">
<title>UserRoutingModule</title>
<polygon fill="#8dd3c7" stroke="black" points="3851.59,-84.8 3848.59,-88.8 3827.59,-88.8 3824.59,-84.8 3720.41,-84.8 3720.41,-48.8 3851.59,-48.8 3851.59,-84.8"/>
<text text-anchor="middle" x="3786" y="-62.6" font-family="Times,serif" font-size="14.00">UserRoutingModule</text>
</g>
<!-- UserRoutingModule&#45;&gt;UserModule -->
<g id="edge24" class="edge">
<title>UserRoutingModule&#45;&gt;UserModule</title>
<path fill="none" stroke="black" d="M3786,-85.11C3786,-104.95 3786,-133.8 3786,-133.8 3786,-133.8 2432.26,-133.8 2432.26,-133.8"/>
<polygon fill="black" stroke="black" points="2432.26,-130.3 2422.26,-133.8 2432.26,-137.3 2432.26,-130.3"/>
</g>
<!-- AddressService -->
<g id="node26" class="node">
<title>AddressService</title>
<ellipse fill="#fdb462" stroke="black" cx="4690" cy="-66.8" rx="71.77" ry="18"/>
<text text-anchor="middle" x="4690" y="-62.6" font-family="Times,serif" font-size="14.00">AddressService</text>
</g>
<!-- AddressService&#45;&gt;UserModule -->
<g id="edge25" class="edge">
<title>AddressService&#45;&gt;UserModule</title>
<path fill="none" stroke="black" d="M4690,-85.18C4690,-109.08 4690,-147.8 4690,-147.8 4690,-147.8 2432.09,-147.8 2432.09,-147.8"/>
<polygon fill="black" stroke="black" points="2432.09,-144.3 2422.09,-147.8 2432.09,-151.3 2432.09,-144.3"/>
</g>
<!-- NotificationService -->
<g id="node27" class="node">
<title>NotificationService</title>
<ellipse fill="#fdb462" stroke="black" cx="4514" cy="-66.8" rx="86.81" ry="18"/>
<text text-anchor="middle" x="4514" y="-62.6" font-family="Times,serif" font-size="14.00">NotificationService</text>
</g>
<!-- NotificationService&#45;&gt;UserModule -->
<g id="edge26" class="edge">
<title>NotificationService&#45;&gt;UserModule</title>
<path fill="none" stroke="black" d="M4514,-85.12C4514,-108.46 4514,-145.8 4514,-145.8 4514,-145.8 2432.13,-145.8 2432.13,-145.8"/>
<polygon fill="black" stroke="black" points="2432.13,-142.3 2422.13,-145.8 2432.13,-149.3 2432.13,-142.3"/>
</g>
<!-- OrderService -->
<g id="node28" class="node">
<title>OrderService</title>
<ellipse fill="#fdb462" stroke="black" cx="4347" cy="-66.8" rx="62.52" ry="18"/>
<text text-anchor="middle" x="4347" y="-62.6" font-family="Times,serif" font-size="14.00">OrderService</text>
</g>
<!-- OrderService&#45;&gt;UserModule -->
<g id="edge27" class="edge">
<title>OrderService&#45;&gt;UserModule</title>
<path fill="none" stroke="black" d="M4347,-84.81C4347,-107.29 4347,-142.8 4347,-142.8 4347,-142.8 2432.4,-142.8 2432.4,-142.8"/>
<polygon fill="black" stroke="black" points="2432.4,-139.3 2422.4,-142.8 2432.4,-146.3 2432.4,-139.3"/>
</g>
<!-- UserService -->
<g id="node29" class="node">
<title>UserService</title>
<ellipse fill="#fdb462" stroke="black" cx="4208" cy="-66.8" rx="58.44" ry="18"/>
<text text-anchor="middle" x="4208" y="-62.6" font-family="Times,serif" font-size="14.00">UserService</text>
</g>
<!-- UserService&#45;&gt;UserModule -->
<g id="edge28" class="edge">
<title>UserService&#45;&gt;UserModule</title>
<path fill="none" stroke="black" d="M4208,-85.09C4208,-107.01 4208,-140.8 4208,-140.8 4208,-140.8 2432.41,-140.8 2432.41,-140.8"/>
<polygon fill="black" stroke="black" points="2432.41,-137.3 2422.41,-140.8 2432.41,-144.3 2432.41,-137.3"/>
</g>
<!-- WalletService -->
<g id="node30" class="node">
<title>WalletService</title>
<ellipse fill="#fdb462" stroke="black" cx="4066" cy="-66.8" rx="65.96" ry="18"/>
<text text-anchor="middle" x="4066" y="-62.6" font-family="Times,serif" font-size="14.00">WalletService</text>
</g>
<!-- WalletService&#45;&gt;UserModule -->
<g id="edge29" class="edge">
<title>WalletService&#45;&gt;UserModule</title>
<path fill="none" stroke="black" d="M4066,-85.08C4066,-106.12 4066,-137.8 4066,-137.8 4066,-137.8 2432.4,-137.8 2432.4,-137.8"/>
<polygon fill="black" stroke="black" points="2432.4,-134.3 2422.4,-137.8 2432.4,-141.3 2432.4,-134.3"/>
</g>
</g>
</svg>
