<?xml version="1.0" encoding="UTF-8" standalone="no"?>
<!DOCTYPE svg PUBLIC "-//W3C//DTD SVG 1.1//EN"
 "http://www.w3.org/Graphics/SVG/1.1/DTD/svg11.dtd">
<!-- Generated by graphviz version 2.47.3 (20210619.1520)
 -->
<!-- Title: dependencies Pages: 1 -->
<svg width="744pt" height="174pt"
 viewBox="0.00 0.00 744.00 173.80" xmlns="http://www.w3.org/2000/svg" xmlns:xlink="http://www.w3.org/1999/xlink">
<g id="graph0" class="graph" transform="scale(1 1) rotate(0) translate(4 169.8)">
<title>dependencies</title>
<polygon fill="white" stroke="transparent" points="-4,4 -4,-169.8 740,-169.8 740,4 -4,4"/>
<text text-anchor="middle" x="368" y="-8.2" font-family="sans-serif" font-size="14.00">dependencies</text>
<g id="clust1" class="cluster">
<title>cluster_PanelModule</title>
<polygon fill="none" stroke="black" stroke-dasharray="1,5" points="8,-32.8 8,-157.8 728,-157.8 728,-32.8 8,-32.8"/>
</g>
<g id="clust2" class="cluster">
<title>cluster_PanelModule_declarations</title>
<polygon fill="none" stroke="black" points="176,-40.8 176,-92.8 720,-92.8 720,-40.8 176,-40.8"/>
</g>
<g id="clust7" class="cluster">
<title>cluster_PanelModule_imports</title>
<polygon fill="none" stroke="black" points="16,-40.8 16,-92.8 168,-92.8 168,-40.8 16,-40.8"/>
</g>
<!-- HasRoleDirective -->
<g id="node1" class="node">
<title>HasRoleDirective</title>
<polygon fill="#ffffb3" stroke="black" points="712.29,-84.8 595.71,-84.8 595.71,-48.8 712.29,-48.8 712.29,-84.8"/>
<text text-anchor="middle" x="654" y="-62.6" font-family="Times,serif" font-size="14.00">HasRoleDirective</text>
</g>
<!-- PanelModule -->
<g id="node5" class="node">
<title>PanelModule</title>
<polygon fill="#8dd3c7" stroke="black" points="427.15,-149.8 424.15,-153.8 403.15,-153.8 400.15,-149.8 336.85,-149.8 336.85,-113.8 427.15,-113.8 427.15,-149.8"/>
<text text-anchor="middle" x="382" y="-127.6" font-family="Times,serif" font-size="14.00">PanelModule</text>
</g>
<!-- HasRoleDirective&#45;&gt;PanelModule -->
<g id="edge1" class="edge">
<title>HasRoleDirective&#45;&gt;PanelModule</title>
<path fill="none" stroke="black" d="M654,-85.08C654,-106.12 654,-137.8 654,-137.8 654,-137.8 437.22,-137.8 437.22,-137.8"/>
<polygon fill="black" stroke="black" points="437.22,-134.3 427.22,-137.8 437.22,-141.3 437.22,-134.3"/>
</g>
<!-- NavbarComponent -->
<g id="node2" class="node">
<title>NavbarComponent</title>
<polygon fill="#ffffb3" stroke="black" points="578.03,-84.8 455.97,-84.8 455.97,-48.8 578.03,-48.8 578.03,-84.8"/>
<text text-anchor="middle" x="517" y="-62.6" font-family="Times,serif" font-size="14.00">NavbarComponent</text>
</g>
<!-- NavbarComponent&#45;&gt;PanelModule -->
<g id="edge2" class="edge">
<title>NavbarComponent&#45;&gt;PanelModule</title>
<path fill="none" stroke="black" d="M517,-84.82C517,-102.17 517,-125.8 517,-125.8 517,-125.8 437.33,-125.8 437.33,-125.8"/>
<polygon fill="black" stroke="black" points="437.33,-122.3 427.33,-125.8 437.33,-129.3 437.33,-122.3"/>
</g>
<!-- PanelComponent -->
<g id="node3" class="node">
<title>PanelComponent</title>
<polygon fill="#ffffb3" stroke="black" points="438.44,-84.8 325.56,-84.8 325.56,-48.8 438.44,-48.8 438.44,-84.8"/>
<text text-anchor="middle" x="382" y="-62.6" font-family="Times,serif" font-size="14.00">PanelComponent</text>
</g>
<!-- PanelComponent&#45;&gt;PanelModule -->
<g id="edge3" class="edge">
<title>PanelComponent&#45;&gt;PanelModule</title>
<path fill="none" stroke="black" d="M382,-84.91C382,-84.91 382,-103.79 382,-103.79"/>
<polygon fill="black" stroke="black" points="378.5,-103.79 382,-113.79 385.5,-103.79 378.5,-103.79"/>
</g>
<!-- SidebarComponent -->
<g id="node4" class="node">
<title>SidebarComponent</title>
<polygon fill="#ffffb3" stroke="black" points="308.1,-84.8 183.9,-84.8 183.9,-48.8 308.1,-48.8 308.1,-84.8"/>
<text text-anchor="middle" x="246" y="-62.6" font-family="Times,serif" font-size="14.00">SidebarComponent</text>
</g>
<!-- SidebarComponent&#45;&gt;PanelModule -->
<g id="edge4" class="edge">
<title>SidebarComponent&#45;&gt;PanelModule</title>
<path fill="none" stroke="black" d="M246,-84.82C246,-102.17 246,-125.8 246,-125.8 246,-125.8 326.71,-125.8 326.71,-125.8"/>
<polygon fill="black" stroke="black" points="326.71,-129.3 336.71,-125.8 326.71,-122.3 326.71,-129.3"/>
</g>
<!-- PanelRoutingModule -->
<g id="node6" class="node">
<title>PanelRoutingModule</title>
<polygon fill="#8dd3c7" stroke="black" points="159.77,-84.8 156.77,-88.8 135.77,-88.8 132.77,-84.8 24.23,-84.8 24.23,-48.8 159.77,-48.8 159.77,-84.8"/>
<text text-anchor="middle" x="92" y="-62.6" font-family="Times,serif" font-size="14.00">PanelRoutingModule</text>
</g>
<!-- PanelRoutingModule&#45;&gt;PanelModule -->
<g id="edge5" class="edge">
<title>PanelRoutingModule&#45;&gt;PanelModule</title>
<path fill="none" stroke="black" d="M92,-85.08C92,-106.12 92,-137.8 92,-137.8 92,-137.8 326.69,-137.8 326.69,-137.8"/>
<polygon fill="black" stroke="black" points="326.69,-141.3 336.69,-137.8 326.69,-134.3 326.69,-141.3"/>
</g>
</g>
</svg>
