<?xml version="1.0" encoding="UTF-8" standalone="no"?>
<!DOCTYPE svg PUBLIC "-//W3C//DTD SVG 1.1//EN"
 "http://www.w3.org/Graphics/SVG/1.1/DTD/svg11.dtd">
<!-- Generated by graphviz version 2.47.3 (20210619.1520)
 -->
<!-- Title: dependencies Pages: 1 -->
<svg width="2147pt" height="174pt"
 viewBox="0.00 0.00 2147.00 173.80" xmlns="http://www.w3.org/2000/svg" xmlns:xlink="http://www.w3.org/1999/xlink">
<g id="graph0" class="graph" transform="scale(1 1) rotate(0) translate(4 169.8)">
<title>dependencies</title>
<polygon fill="white" stroke="transparent" points="-4,4 -4,-169.8 2143,-169.8 2143,4 -4,4"/>
<text text-anchor="middle" x="1069.5" y="-8.2" font-family="sans-serif" font-size="14.00">dependencies</text>
<g id="clust1" class="cluster">
<title>cluster_AdminModule</title>
<polygon fill="none" stroke="black" stroke-dasharray="1,5" points="8,-32.8 8,-157.8 2131,-157.8 2131,-32.8 8,-32.8"/>
</g>
<g id="clust2" class="cluster">
<title>cluster_AdminModule_declarations</title>
<polygon fill="none" stroke="black" points="526,-40.8 526,-92.8 2123,-92.8 2123,-40.8 526,-40.8"/>
</g>
<g id="clust15" class="cluster">
<title>cluster_AdminModule_providers</title>
<polygon fill="none" stroke="black" points="308,-40.8 308,-92.8 518,-92.8 518,-40.8 308,-40.8"/>
</g>
<g id="clust12" class="cluster">
<title>cluster_AdminModule_imports</title>
<polygon fill="none" stroke="black" points="16,-40.8 16,-92.8 300,-92.8 300,-40.8 16,-40.8"/>
</g>
<!-- AddBrandComponent -->
<g id="node1" class="node">
<title>AddBrandComponent</title>
<polygon fill="#ffffb3" stroke="black" points="2114.65,-84.8 1975.35,-84.8 1975.35,-48.8 2114.65,-48.8 2114.65,-84.8"/>
<text text-anchor="middle" x="2045" y="-62.6" font-family="Times,serif" font-size="14.00">AddBrandComponent</text>
</g>
<!-- AdminModule -->
<g id="node10" class="node">
<title>AdminModule</title>
<polygon fill="#8dd3c7" stroke="black" points="1202.44,-149.8 1199.44,-153.8 1178.44,-153.8 1175.44,-149.8 1103.56,-149.8 1103.56,-113.8 1202.44,-113.8 1202.44,-149.8"/>
<text text-anchor="middle" x="1153" y="-127.6" font-family="Times,serif" font-size="14.00">AdminModule</text>
</g>
<!-- AddBrandComponent&#45;&gt;AdminModule -->
<g id="edge1" class="edge">
<title>AddBrandComponent&#45;&gt;AdminModule</title>
<path fill="none" stroke="black" d="M2045,-84.89C2045,-107.93 2045,-144.8 2045,-144.8 2045,-144.8 1212.23,-144.8 1212.23,-144.8"/>
<polygon fill="black" stroke="black" points="1212.23,-141.3 1202.23,-144.8 1212.23,-148.3 1212.23,-141.3"/>
</g>
<!-- AdminComponent -->
<g id="node2" class="node">
<title>AdminComponent</title>
<polygon fill="#ffffb3" stroke="black" points="1957.22,-84.8 1836.78,-84.8 1836.78,-48.8 1957.22,-48.8 1957.22,-84.8"/>
<text text-anchor="middle" x="1897" y="-62.6" font-family="Times,serif" font-size="14.00">AdminComponent</text>
</g>
<!-- AdminComponent&#45;&gt;AdminModule -->
<g id="edge2" class="edge">
<title>AdminComponent&#45;&gt;AdminModule</title>
<path fill="none" stroke="black" d="M1897,-85.08C1897,-106.12 1897,-137.8 1897,-137.8 1897,-137.8 1212.39,-137.8 1212.39,-137.8"/>
<polygon fill="black" stroke="black" points="1212.39,-134.3 1202.39,-137.8 1212.39,-141.3 1212.39,-134.3"/>
</g>
<!-- BrandEditComponent -->
<g id="node3" class="node">
<title>BrandEditComponent</title>
<polygon fill="#ffffb3" stroke="black" points="1818.38,-84.8 1679.62,-84.8 1679.62,-48.8 1818.38,-48.8 1818.38,-84.8"/>
<text text-anchor="middle" x="1749" y="-62.6" font-family="Times,serif" font-size="14.00">BrandEditComponent</text>
</g>
<!-- BrandEditComponent&#45;&gt;AdminModule -->
<g id="edge3" class="edge">
<title>BrandEditComponent&#45;&gt;AdminModule</title>
<path fill="none" stroke="black" d="M1749,-84.91C1749,-104.14 1749,-131.8 1749,-131.8 1749,-131.8 1212.28,-131.8 1212.28,-131.8"/>
<polygon fill="black" stroke="black" points="1212.28,-128.3 1202.28,-131.8 1212.28,-135.3 1212.28,-128.3"/>
</g>
<!-- BrandListComponent -->
<g id="node4" class="node">
<title>BrandListComponent</title>
<polygon fill="#ffffb3" stroke="black" points="1661.82,-84.8 1524.18,-84.8 1524.18,-48.8 1661.82,-48.8 1661.82,-84.8"/>
<text text-anchor="middle" x="1593" y="-62.6" font-family="Times,serif" font-size="14.00">BrandListComponent</text>
</g>
<!-- BrandListComponent&#45;&gt;AdminModule -->
<g id="edge4" class="edge">
<title>BrandListComponent&#45;&gt;AdminModule</title>
<path fill="none" stroke="black" d="M1593,-84.82C1593,-102.17 1593,-125.8 1593,-125.8 1593,-125.8 1212.62,-125.8 1212.62,-125.8"/>
<polygon fill="black" stroke="black" points="1212.62,-122.3 1202.62,-125.8 1212.62,-129.3 1212.62,-122.3"/>
</g>
<!-- DashboardComponent -->
<g id="node5" class="node">
<title>DashboardComponent</title>
<polygon fill="#ffffb3" stroke="black" points="1505.97,-84.8 1364.03,-84.8 1364.03,-48.8 1505.97,-48.8 1505.97,-84.8"/>
<text text-anchor="middle" x="1435" y="-62.6" font-family="Times,serif" font-size="14.00">DashboardComponent</text>
</g>
<!-- DashboardComponent&#45;&gt;AdminModule -->
<g id="edge5" class="edge">
<title>DashboardComponent&#45;&gt;AdminModule</title>
<path fill="none" stroke="black" d="M1435,-85.04C1435,-100.37 1435,-119.8 1435,-119.8 1435,-119.8 1212.44,-119.8 1212.44,-119.8"/>
<polygon fill="black" stroke="black" points="1212.44,-116.3 1202.44,-119.8 1212.44,-123.3 1212.44,-116.3"/>
</g>
<!-- ProductAddFormComponent -->
<g id="node6" class="node">
<title>ProductAddFormComponent</title>
<polygon fill="#ffffb3" stroke="black" points="1345.82,-84.8 1166.18,-84.8 1166.18,-48.8 1345.82,-48.8 1345.82,-84.8"/>
<text text-anchor="middle" x="1256" y="-62.6" font-family="Times,serif" font-size="14.00">ProductAddFormComponent</text>
</g>
<!-- ProductAddFormComponent&#45;&gt;AdminModule -->
<g id="edge6" class="edge">
<title>ProductAddFormComponent&#45;&gt;AdminModule</title>
<path fill="none" stroke="black" d="M1184.28,-84.91C1184.28,-84.91 1184.28,-103.79 1184.28,-103.79"/>
<polygon fill="black" stroke="black" points="1180.78,-103.79 1184.28,-113.79 1187.78,-103.79 1180.78,-103.79"/>
</g>
<!-- ProductListManagerComponent -->
<g id="node7" class="node">
<title>ProductListManagerComponent</title>
<polygon fill="#ffffb3" stroke="black" points="1148.41,-84.8 951.59,-84.8 951.59,-48.8 1148.41,-48.8 1148.41,-84.8"/>
<text text-anchor="middle" x="1050" y="-62.6" font-family="Times,serif" font-size="14.00">ProductListManagerComponent</text>
</g>
<!-- ProductListManagerComponent&#45;&gt;AdminModule -->
<g id="edge7" class="edge">
<title>ProductListManagerComponent&#45;&gt;AdminModule</title>
<path fill="none" stroke="black" d="M1125.99,-84.91C1125.99,-84.91 1125.99,-103.79 1125.99,-103.79"/>
<polygon fill="black" stroke="black" points="1122.49,-103.79 1125.99,-113.79 1129.49,-103.79 1122.49,-103.79"/>
</g>
<!-- ProductUpdateFormComponent -->
<g id="node8" class="node">
<title>ProductUpdateFormComponent</title>
<polygon fill="#ffffb3" stroke="black" points="933.64,-84.8 738.36,-84.8 738.36,-48.8 933.64,-48.8 933.64,-84.8"/>
<text text-anchor="middle" x="836" y="-62.6" font-family="Times,serif" font-size="14.00">ProductUpdateFormComponent</text>
</g>
<!-- ProductUpdateFormComponent&#45;&gt;AdminModule -->
<g id="edge8" class="edge">
<title>ProductUpdateFormComponent&#45;&gt;AdminModule</title>
<path fill="none" stroke="black" d="M836,-85.04C836,-100.37 836,-119.8 836,-119.8 836,-119.8 1093.47,-119.8 1093.47,-119.8"/>
<polygon fill="black" stroke="black" points="1093.47,-123.3 1103.47,-119.8 1093.47,-116.3 1093.47,-123.3"/>
</g>
<!-- UsersManagementComponent -->
<g id="node9" class="node">
<title>UsersManagementComponent</title>
<polygon fill="#ffffb3" stroke="black" points="720.29,-84.8 533.71,-84.8 533.71,-48.8 720.29,-48.8 720.29,-84.8"/>
<text text-anchor="middle" x="627" y="-62.6" font-family="Times,serif" font-size="14.00">UsersManagementComponent</text>
</g>
<!-- UsersManagementComponent&#45;&gt;AdminModule -->
<g id="edge9" class="edge">
<title>UsersManagementComponent&#45;&gt;AdminModule</title>
<path fill="none" stroke="black" d="M627,-84.82C627,-102.17 627,-125.8 627,-125.8 627,-125.8 1093.52,-125.8 1093.52,-125.8"/>
<polygon fill="black" stroke="black" points="1093.52,-129.3 1103.52,-125.8 1093.52,-122.3 1093.52,-129.3"/>
</g>
<!-- AdminRoutingModule -->
<g id="node11" class="node">
<title>AdminRoutingModule</title>
<polygon fill="#8dd3c7" stroke="black" points="291.56,-84.8 288.56,-88.8 267.56,-88.8 264.56,-84.8 148.44,-84.8 148.44,-48.8 291.56,-48.8 291.56,-84.8"/>
<text text-anchor="middle" x="220" y="-62.6" font-family="Times,serif" font-size="14.00">AdminRoutingModule</text>
</g>
<!-- AdminRoutingModule&#45;&gt;AdminModule -->
<g id="edge10" class="edge">
<title>AdminRoutingModule&#45;&gt;AdminModule</title>
<path fill="none" stroke="black" d="M220,-85.08C220,-106.12 220,-137.8 220,-137.8 220,-137.8 1093.5,-137.8 1093.5,-137.8"/>
<polygon fill="black" stroke="black" points="1093.5,-141.3 1103.5,-137.8 1093.5,-134.3 1093.5,-141.3"/>
</g>
<!-- MaterialModule -->
<g id="node12" class="node">
<title>MaterialModule</title>
<polygon fill="#8dd3c7" stroke="black" points="130.47,-84.8 127.47,-88.8 106.47,-88.8 103.47,-84.8 23.53,-84.8 23.53,-48.8 130.47,-48.8 130.47,-84.8"/>
<text text-anchor="middle" x="77" y="-62.6" font-family="Times,serif" font-size="14.00">MaterialModule</text>
</g>
<!-- MaterialModule&#45;&gt;AdminModule -->
<g id="edge11" class="edge">
<title>MaterialModule&#45;&gt;AdminModule</title>
<path fill="none" stroke="black" d="M77,-84.89C77,-107.93 77,-144.8 77,-144.8 77,-144.8 1093.62,-144.8 1093.62,-144.8"/>
<polygon fill="black" stroke="black" points="1093.62,-148.3 1103.62,-144.8 1093.62,-141.3 1093.62,-148.3"/>
</g>
<!-- AdminProductService -->
<g id="node13" class="node">
<title>AdminProductService</title>
<ellipse fill="#fdb462" stroke="black" cx="413" cy="-66.8" rx="96.71" ry="18"/>
<text text-anchor="middle" x="413" y="-62.6" font-family="Times,serif" font-size="14.00">AdminProductService</text>
</g>
<!-- AdminProductService&#45;&gt;AdminModule -->
<g id="edge12" class="edge">
<title>AdminProductService&#45;&gt;AdminModule</title>
<path fill="none" stroke="black" d="M413,-84.91C413,-104.14 413,-131.8 413,-131.8 413,-131.8 1093.59,-131.8 1093.59,-131.8"/>
<polygon fill="black" stroke="black" points="1093.59,-135.3 1103.59,-131.8 1093.59,-128.3 1093.59,-135.3"/>
</g>
</g>
</svg>
