<?xml version="1.0" encoding="UTF-8" standalone="no"?>
<!DOCTYPE svg PUBLIC "-//W3C//DTD SVG 1.1//EN"
 "http://www.w3.org/Graphics/SVG/1.1/DTD/svg11.dtd">
<!-- Generated by graphviz version 2.47.3 (20210619.1520)
 -->
<!-- Title: dependencies Pages: 1 -->
<svg width="591pt" height="247pt"
 viewBox="0.00 0.00 591.00 246.80" xmlns="http://www.w3.org/2000/svg" xmlns:xlink="http://www.w3.org/1999/xlink">
<g id="graph0" class="graph" transform="scale(1 1) rotate(0) translate(4 242.8)">
<title>dependencies</title>
<polygon fill="white" stroke="transparent" points="-4,4 -4,-242.8 587,-242.8 587,4 -4,4"/>
<text text-anchor="middle" x="291.5" y="-8.2" font-family="sans-serif" font-size="14.00">dependencies</text>
<g id="clust1" class="cluster">
<title>cluster_AppModule</title>
<polygon fill="none" stroke="black" stroke-dasharray="1,5" points="8,-32.8 8,-230.8 575,-230.8 575,-32.8 8,-32.8"/>
</g>
<g id="clust2" class="cluster">
<title>cluster_AppModule_declarations</title>
<polygon fill="none" stroke="black" points="445,-40.8 445,-92.8 567,-92.8 567,-40.8 445,-40.8"/>
</g>
<g id="clust4" class="cluster">
<title>cluster_AppModule_imports</title>
<polygon fill="none" stroke="black" points="293,-40.8 293,-92.8 437,-92.8 437,-40.8 293,-40.8"/>
</g>
<g id="clust6" class="cluster">
<title>cluster_AppModule_bootstrap</title>
<polygon fill="none" stroke="black" points="229,-170.8 229,-222.8 353,-222.8 353,-170.8 229,-170.8"/>
</g>
<g id="clust7" class="cluster">
<title>cluster_AppModule_providers</title>
<polygon fill="none" stroke="black" points="16,-40.8 16,-92.8 285,-92.8 285,-40.8 16,-40.8"/>
</g>
<!-- AppComponent -->
<g id="node1" class="node">
<title>AppComponent</title>
<polygon fill="#ffffb3" stroke="black" points="558.94,-84.8 453.06,-84.8 453.06,-48.8 558.94,-48.8 558.94,-84.8"/>
<text text-anchor="middle" x="506" y="-62.6" font-family="Times,serif" font-size="14.00">AppComponent</text>
</g>
<!-- AppModule -->
<g id="node2" class="node">
<title>AppModule</title>
<polygon fill="#8dd3c7" stroke="black" points="332.66,-149.8 329.66,-153.8 308.66,-153.8 305.66,-149.8 249.34,-149.8 249.34,-113.8 332.66,-113.8 332.66,-149.8"/>
<text text-anchor="middle" x="291" y="-127.6" font-family="Times,serif" font-size="14.00">AppModule</text>
</g>
<!-- AppComponent&#45;&gt;AppModule -->
<g id="edge1" class="edge">
<title>AppComponent&#45;&gt;AppModule</title>
<path fill="none" stroke="black" d="M506,-84.91C506,-104.14 506,-131.8 506,-131.8 506,-131.8 342.71,-131.8 342.71,-131.8"/>
<polygon fill="black" stroke="black" points="342.71,-128.3 332.71,-131.8 342.71,-135.3 342.71,-128.3"/>
</g>
<!-- AppComponent  -->
<g id="node4" class="node">
<title>AppComponent </title>
<polygon fill="#80b1d3" stroke="black" points="345.44,-214.8 236.56,-214.8 236.56,-178.8 345.44,-178.8 345.44,-214.8"/>
<text text-anchor="middle" x="291" y="-192.6" font-family="Times,serif" font-size="14.00">AppComponent </text>
</g>
<!-- AppModule&#45;&gt;AppComponent  -->
<g id="edge3" class="edge">
<title>AppModule&#45;&gt;AppComponent </title>
<path fill="none" stroke="black" stroke-dasharray="1,5" d="M291,-149.91C291,-149.91 291,-168.79 291,-168.79"/>
<polygon fill="black" stroke="black" points="287.5,-168.79 291,-178.79 294.5,-168.79 287.5,-168.79"/>
</g>
<!-- AppRoutingModule -->
<g id="node3" class="node">
<title>AppRoutingModule</title>
<polygon fill="#8dd3c7" stroke="black" points="429.27,-84.8 426.27,-88.8 405.27,-88.8 402.27,-84.8 300.73,-84.8 300.73,-48.8 429.27,-48.8 429.27,-84.8"/>
<text text-anchor="middle" x="365" y="-62.6" font-family="Times,serif" font-size="14.00">AppRoutingModule</text>
</g>
<!-- AppRoutingModule&#45;&gt;AppModule -->
<g id="edge2" class="edge">
<title>AppRoutingModule&#45;&gt;AppModule</title>
<path fill="none" stroke="black" d="M316.72,-84.91C316.72,-84.91 316.72,-103.79 316.72,-103.79"/>
<polygon fill="black" stroke="black" points="313.22,-103.79 316.72,-113.79 320.22,-103.79 313.22,-103.79"/>
</g>
<!-- AuthService -->
<g id="node5" class="node">
<title>AuthService</title>
<ellipse fill="#fdb462" stroke="black" cx="218" cy="-66.8" rx="59.11" ry="18"/>
<text text-anchor="middle" x="218" y="-62.6" font-family="Times,serif" font-size="14.00">AuthService</text>
</g>
<!-- AuthService&#45;&gt;AppModule -->
<g id="edge4" class="edge">
<title>AuthService&#45;&gt;AppModule</title>
<path fill="none" stroke="black" d="M263.24,-78.72C263.24,-78.72 263.24,-103.57 263.24,-103.57"/>
<polygon fill="black" stroke="black" points="259.74,-103.57 263.24,-113.57 266.74,-103.57 259.74,-103.57"/>
</g>
<!-- TitleService -->
<g id="node6" class="node">
<title>TitleService</title>
<ellipse fill="#fdb462" stroke="black" cx="82" cy="-66.8" rx="58.46" ry="18"/>
<text text-anchor="middle" x="82" y="-62.6" font-family="Times,serif" font-size="14.00">TitleService</text>
</g>
<!-- TitleService&#45;&gt;AppModule -->
<g id="edge5" class="edge">
<title>TitleService&#45;&gt;AppModule</title>
<path fill="none" stroke="black" d="M82,-84.91C82,-104.14 82,-131.8 82,-131.8 82,-131.8 239.21,-131.8 239.21,-131.8"/>
<polygon fill="black" stroke="black" points="239.21,-135.3 249.21,-131.8 239.21,-128.3 239.21,-135.3"/>
</g>
</g>
</svg>
